<svg xmlns="http://www.w3.org/2000/svg" viewBox="0 0 1024 1024" role="img" aria-label="Hossein Starship app icon">
  <defs>
    <clipPath id="iconMask">
      <rect width="1024" height="1024" rx="224" ry="224"/>
    </clipPath>

    <radialGradient id="background" cx="32%" cy="18%" r="98%">
      <stop offset="0%" stop-color="#3a9276"/>
      <stop offset="36%" stop-color="#16614d"/>
      <stop offset="76%" stop-color="#0c342b"/>
      <stop offset="100%" stop-color="#09211c"/>
    </radialGradient>

    <radialGradient id="surfaceLight" cx="31%" cy="20%" r="58%">
      <stop offset="0%" stop-color="#d7fff0" stop-opacity="0.34"/>
      <stop offset="55%" stop-color="#9ef8d6" stop-opacity="0.08"/>
      <stop offset="100%" stop-color="#9ef8d6" stop-opacity="0"/>
    </radialGradient>

    <linearGradient id="tileSheen" x1="162" y1="112" x2="862" y2="912" gradientUnits="userSpaceOnUse">
      <stop offset="0%" stop-color="#ffffff" stop-opacity="0.18"/>
      <stop offset="44%" stop-color="#d6fff0" stop-opacity="0.06"/>
      <stop offset="100%" stop-color="#001611" stop-opacity="0.16"/>
    </linearGradient>

    <linearGradient id="tileStroke" x1="180" y1="136" x2="844" y2="888" gradientUnits="userSpaceOnUse">
      <stop offset="0%" stop-color="#effff8" stop-opacity="0.26"/>
      <stop offset="50%" stop-color="#b9fbe1" stop-opacity="0.08"/>
      <stop offset="100%" stop-color="#00150f" stop-opacity="0.3"/>
    </linearGradient>

    <linearGradient id="monogram" x1="300" y1="190" x2="724" y2="832" gradientUnits="userSpaceOnUse">
      <stop offset="0%" stop-color="#fbfffd"/>
      <stop offset="26%" stop-color="#defbed"/>
      <stop offset="58%" stop-color="#9fe7c5"/>
      <stop offset="100%" stop-color="#4fb487"/>
    </linearGradient>

    <linearGradient id="monogramEdge" x1="300" y1="220" x2="724" y2="820" gradientUnits="userSpaceOnUse">
      <stop offset="0%" stop-color="#ffffff" stop-opacity="0.62"/>
      <stop offset="48%" stop-color="#ffffff" stop-opacity="0.18"/>
      <stop offset="100%" stop-color="#082a22" stop-opacity="0.52"/>
    </linearGradient>

    <linearGradient id="starPoint" x1="684" y1="226" x2="786" y2="326" gradientUnits="userSpaceOnUse">
      <stop offset="0%" stop-color="#ffffff"/>
      <stop offset="100%" stop-color="#baf8dc"/>
    </linearGradient>

    <filter id="softDepth" x="-20%" y="-20%" width="140%" height="140%">
      <feDropShadow dx="0" dy="18" stdDeviation="18" flood-color="#02140f" flood-opacity="0.34"/>
      <feDropShadow dx="0" dy="1" stdDeviation="1" flood-color="#ffffff" flood-opacity="0.22"/>
    </filter>
  </defs>

  <g clip-path="url(#iconMask)">
    <rect width="1024" height="1024" fill="url(#background)"/>
    <rect width="1024" height="1024" fill="url(#surfaceLight)"/>

    <rect x="162" y="134" width="700" height="756" rx="164" fill="url(#tileSheen)" stroke="url(#tileStroke)" stroke-width="3"/>

    <g filter="url(#softDepth)">
      <path d="M302 284c0-28 23-51 51-51h44c28 0 51 23 51 51v168h128V284c0-28 23-51 51-51h44c28 0 51 23 51 51v456c0 28-23 51-51 51h-44c-28 0-51-23-51-51V568H448v172c0 28-23 51-51 51h-44c-28 0-51-23-51-51V284z" fill="url(#monogram)"/>
      <path d="M353 249h44c19 0 35 16 35 35v184h160V284c0-19 16-35 35-35h44c19 0 35 16 35 35v456c0 19-16 35-35 35h-44c-19 0-35-16-35-35V552H432v188c0 19-16 35-35 35h-44c-19 0-35-16-35-35V284c0-19 16-35 35-35z" fill="none" stroke="url(#monogramEdge)" stroke-width="20"/>
      <path d="M370 274h18c13 0 24 11 24 24v138c0 13-11 24-24 24h-18c-13 0-24-11-24-24V298c0-13 11-24 24-24zM636 274h18c13 0 24 11 24 24v138c0 13-11 24-24 24h-18c-13 0-24-11-24-24V298c0-13 11-24 24-24z" fill="#ffffff" opacity="0.22"/>
    </g>

    <path d="M742 215l17 46 46 17-46 17-17 46-17-46-46-17 46-17z" fill="url(#starPoint)" opacity="0.84"/>
    <circle cx="742" cy="278" r="4" fill="#ffffff" opacity="0.72"/>

    <path d="M202 228c0-31 25-56 56-56h118" fill="none" stroke="#ffffff" stroke-width="5" stroke-linecap="round" opacity="0.18"/>
    <path d="M822 796c0 31-25 56-56 56H648" fill="none" stroke="#e4fff3" stroke-width="5" stroke-linecap="round" opacity="0.13"/>
  </g>
</svg>
